<?xml version="1.0" encoding="utf-8"?>
<!DOCTYPE svg PUBLIC "-//W3C//DTD SVG 1.1//EN" "http://www.w3.org/Graphics/SVG/1.1/DTD/svg11.dtd">
<svg xmlns="http://www.w3.org/2000/svg"
	 viewBox="0 0 145 160">
<path fill="#FFFFFF" d="M74.6,3.4c3.8,2.1,4.6,3.6,4.6,9.3
	c0,5-1,7.6-3.7,9.8c-5.6,4.6-2.3,5.9,4.6,1.9c7.6-4.5,7.5-4.5,7.5,1.3c0,4-1.3,5.6-7.5,9.2c-8.2,4.8-10.4,9.2-2.6,5.1
	c6.4-3.3,6.7-3.3,6.7,1.6c0,3.2-1.6,5-6.9,7.6c-6.6,3.4-7.1,3.4-14.1,0.7c-5.9-2.3-7.3-3.6-7.3-7c0-4.3,1.1-4.5,8.7-1.3
	c1.6,0.7,2.9,0.5,2.9-0.4c0-0.9-3.7-3.2-8.3-5.1c-7.4-3.1-8.3-4-8.3-8.5v-5l7.5,3.2c5.6,2.4,7.5,2.7,7.5,1c0-1.2-1.8-3-4-4
	c-2.9-1.3-4.2-3.6-4.8-8.2c-0.7-5.4-0.2-6.9,3.5-10.1C65.7,0.2,68.3-0.1,74.6,3.4z M134.4,33.4c3.8,2.1,4.6,3.6,4.6,9
	c0,5.4-0.9,7.1-5.1,10.2c-4.3,3.1-5.8,3.3-9.2,1.8c-9.6-4.4-9.8-0.9-0.3,4.6c6.5,3.7,6.7,4.1,3.8,6.3c-4.2,3.1-7.4,2.9-13.3-1.1
	c-6.8-4.5-11.4-4.3-5.3,0.2c3.7,2.7,4.2,3.9,2.7,5.8c-2.7,3.2-4.8,2.9-11.7-1.7c-4.9-3.3-6.2-5.4-7-11.3c-0.8-5.6-0.4-7.7,1.7-9.3
	c4-3.1,5.4-2.6,5.4,2c0,2.2,0.8,4.6,1.9,5.2c1.4,0.8,1.6-1.4,0.7-8c-1.1-8.5-0.8-9.3,3-11.8c3.7-2.4,4.2-2.4,5.1-0.1
	c0.5,1.4,1,4.8,1,7.4c0,2.9,0.9,4.9,2.2,4.9c1.5,0,2-1.6,1.5-4.8c-0.6-3.8,0.3-5.5,4.3-8.3C126.2,30.2,128.3,30,134.4,33.4z
	 M33,40.1c4.1,2.1,4.6,3.4,4.7,11.1c0.1,8.2,0.2,8.4,1.9,3.7c2.2-6.3,2-6.1,5.2-4.9c2.1,0.8,2.7,3.2,2.7,9.8c0,8.1-0.5,9.2-5.8,13.2
	c-4.8,3.7-6.4,4.1-9.3,2.6L29,73.8l3.8-4c5.6-6,2.9-6.5-4.3-0.7c-7.1,5.6-8.9,6-13.2,2.8c-2.9-2.1-2.7-2.5,3-6.9
	c6.6-5.1,6.7-9.2,0.1-4.8c-3.8,2.5-4.6,2.5-10.7-0.3c-6-2.7-6.6-3.6-6.6-9.3c0-5.2,0.9-7,5.2-10l5.2-3.7l6,3.2
	c3.3,1.8,6.2,4.7,6.5,6.5c1.3,7.9,2.7,7.8,3.6-0.3l0.9-8.6L33,40.1z M88.4,51.3c1.9,5.1,0,15.2-3,15.8c-2,0.4-2.9-0.5-2.9-2.9
	c0-3.9-0.6-4.1-5.1-1.7c-2.8,1.5-3.2,1.2-3.2-2.2C74.2,55.3,86.9,47.3,88.4,51.3z M60.4,54.1c3.9,1.8,7.1,3.5,7.1,4
	c0,0.4,0.5,2.1,1.1,3.7c0.9,2.4,0.4,2.7-3.2,1.8c-3.4-0.9-4.5-0.4-5.4,2.3c-1.2,3.6-2.2,4-5.5,1.9c-1.4-0.9-2-4.1-1.7-9.1l0.5-7.7
	L60.4,54.1z M80.8,70.7c0,3.4,1,5.2,3.3,5.9c4.3,1.4,4.2,3.6-0.1,5.9c-2.4,1.3-3.3,3.2-2.9,6.3c0.4,3.3-0.1,4.3-2,3.8
	c-3.8-1.1-8.8-0.8-12,0.6c-2.3,1-2.9,0.5-2.9-3c0-3-1.4-5-4.5-6.6l-4.5-2.3l3.6-2.3c2.5-1.6,3.6-3.9,3.6-7.7c0-5.2,0.2-5.3,4.2-3.5
	c3.1,1.4,5.2,1.4,8.4,0C80.8,65.1,80.8,65.1,80.8,70.7z M100.4,73.7c3,1.5,5.4,3.3,5.4,4c0,2.7-11.3,9.8-13.9,8.8
	c-3.4-1.3-3.4-3-0.2-5.7c2.2-1.9,2.1-2.4-0.9-4.5c-3.8-2.6-3-5.5,1.3-5.4C93.7,70.9,97.4,72.2,100.4,73.7z M54.1,74
	c2.1,1.3,2,2-0.5,4.7c-2.8,3.1-2.7,3.3,0.6,5.5c3.3,2.2,3.3,2.4,0.4,4.2c-2.5,1.5-4.4,1.1-10.1-2.3l-7-4.2l6.3-4.8
	C50.9,71.9,50.8,71.9,54.1,74z M113,84.3c2.9,1.7,2.9,2-0.7,5.8c-5.5,5.9-3,6.4,3.6,0.7c6.4-5.4,9.5-6.1,13.9-2.9
	c2.8,2,2.5,2.5-3,6.8c-6.6,5.1-6.6,9.3,0,5c3.8-2.5,4.6-2.5,10.7,0.3c6,2.7,6.6,3.6,6.6,9.3c0,5.1-0.9,7-5.1,10
	c-5,3.6-5.2,3.6-11.6,0.7c-5.3-2.4-6.5-3.8-6.5-7.6c0-2.6-0.7-5.1-1.7-5.7c-1-0.6-1.7,1.8-1.7,6.3c0,8.8-0.8,9.9-6,7.5
	c-3.5-1.6-4-3-4-10.6c0-4.8-0.7-9.3-1.7-9.8c-1-0.6-1.7,1.4-1.7,4.9c0,6.5-0.3,6.8-5.1,4.2c-2.4-1.3-3.2-3.5-3.2-9
	c0-6.5,0.7-7.9,6.5-12.4C109.6,81.8,108.9,82,113,84.3z M44.5,91.6c5.3,3.5,6.1,5,6.7,11.7c0.5,6,0,8.1-2.2,9.3
	c-4.1,2.2-4.3,2-5.5-3.5c-1.8-8.2-3.9-4.1-2.3,4.5c1.3,7.2,1.1,8.2-2.2,10.7c-4.5,3.4-6.3,2.6-6.3-2.7c0-5.2-1.6-9.2-3.7-9.2
	c-0.9,0-1.3,2.3-0.9,5c0.6,4.3-0.1,5.6-4.9,8.5c-4.9,3-6.2,3.2-10.7,1.4c-5-2.1-8.1-7.2-8.1-13.2c0-1.7,2.5-4.6,5.8-6.5
	c4.8-2.9,6.6-3.1,10-1.6c5,2.3,7.9,0.1,3.5-2.6c-1.7-1-4.6-3.1-6.4-4.5c-3.3-2.6-3.3-2.6,0.8-5.3c3.9-2.6,4.4-2.5,10.1,1.3
	c3.3,2.2,7.3,4,9,4c2.1,0,1.3-1.1-2.6-3.6c-5.2-3.4-5.4-3.7-2.6-5.8C35.9,86.7,37.3,86.9,44.5,91.6z M89.7,92
	c1.6,2.8,2.9,15.1,1.7,15.8c-0.8,0.4-4.5-0.7-8.4-2.4c-4.9-2.2-7.1-4.2-7.1-6.5c0-2.7,0.8-3.1,4.2-2.3c3.4,0.9,4.2,0.4,4.2-2.5
	C84.1,91,88.1,89.3,89.7,92z M62,95.8c1,3.9,1.3,3.9,5.6,1.6c2.7-1.5,3.2-1.2,3.2,2.1c0,2.7-2,4.9-6.8,7.7c-3.7,2.1-7,3.6-7.3,3.3
	c-1.2-1.2-1.4-14.1-0.2-16C58.4,91.4,61.1,92,62,95.8z M82.5,110.5c3.6,1.8,6,4.3,6.4,6.6c0.6,4.2-0.7,4.5-7.2,2.1
	c-3.2-1.2-4.2-1.2-3.8,0.2c0.3,1,4,3.1,8,4.6c6.5,2.4,7.5,3.4,7.9,8.2l0.5,5.5l-6.1-2.6c-3.4-1.4-6.8-2.6-7.6-2.6
	c-3,0-1.3,2.9,2.8,4.7c3.8,1.7,4.2,2.8,3.7,9.6c-0.4,6.2-1.3,8.1-5,10.3c-4.2,2.5-4.9,2.5-10.2,0c-4.6-2.2-5.8-3.9-6.7-9.1
	c-0.9-5.6-0.5-6.8,3.5-10c6.3-5,3.5-6.8-3.8-2.5c-3.3,1.9-6.3,3.5-6.7,3.5s-0.7-2.2-0.7-4.9c0-4.1,1.3-5.7,7.8-9.5
	c7.3-4.3,8-7.9,0.8-4c-4.7,2.5-5.2,2.3-5.2-2.4c0-3.1,1.6-4.9,6.6-7.5C75.2,106.8,75.1,106.8,82.5,110.5z"/>
</svg>
