<?xml version="1.0" encoding="utf-8"?>
<!-- Generator: Adobe Illustrator 18.0.0, SVG Export Plug-In . SVG Version: 6.00 Build 0)  -->
<!DOCTYPE svg PUBLIC "-//W3C//DTD SVG 1.1//EN" "http://www.w3.org/Graphics/SVG/1.1/DTD/svg11.dtd">
<svg version="1.1" id="Layer_1" xmlns="http://www.w3.org/2000/svg"
	 viewBox="0 0 118 189">
<path fill="none" stroke="#000000" stroke-width="1" stroke-miterlimit="10" d="M117,94.3c-8-1.2-15.6,2.2-21.7,7.3
	c-5.7,4.8-10.2,10.8-15.3,16.1C61,137.9,30,151.1,2,147.1c13.4,1.4,26.7,1.7,37.2-7.6c9.8-8.6,15.7-21.5,18.1-34.2
	c3.4-18.2,1.2-36.9,1.4-55.4c0.2-10.7,1.6-22.3,8.9-30c10-10.5,26.5-9.9,40.9-8.5"/>
<polyline fill="none" stroke="#000000" stroke-width="1" stroke-miterlimit="10" points="98.6,2 108.8,11.8 99,21.9 "/>
<polyline fill="none" stroke="#000000" stroke-width="1" stroke-miterlimit="10" points="106.8,84.4 117,94.2 107.2,104.4 "/>
<polyline fill="none" stroke="#000000" stroke-width="1" stroke-miterlimit="10" points="98.6,168.1 108.8,177.8 99,188 "/>
<path fill="none" stroke="#000000" stroke-width="1" stroke-miterlimit="10" d="M2.6,147.4c22.6-0.2,45.2,6.5,64.1,19
	c4.4,2.9,8.7,6.2,13.6,8.3c8.9,3.8,19,3.5,28.6,3"/>
<path fill="none" stroke="#FFFFFF" stroke-width="1.5" stroke-miterlimit="10" d="M116,93.3c-8-1.2-15.6,2.2-21.7,7.3
	c-5.7,4.8-10.2,10.8-15.3,16.1C60,136.9,29,150.1,1,146.1c13.4,1.4,26.7,1.7,37.2-7.6c9.8-8.6,15.7-21.5,18.1-34.2
	c3.4-18.2,1.2-36.9,1.4-55.4c0.2-10.7,1.6-22.3,8.9-30c10-10.5,26.5-9.9,40.9-8.5"/>
<polyline fill="none" stroke="#FFFFFF" stroke-width="1.5" stroke-miterlimit="10" points="97.6,1 107.8,10.8 98,20.9 "/>
<polyline fill="none" stroke="#FFFFFF" stroke-width="1.5" stroke-miterlimit="10" points="105.8,83.4 116,93.2 106.2,103.4 "/>
<polyline fill="none" stroke="#FFFFFF" stroke-width="1.5" stroke-miterlimit="10" points="97.6,167.1 107.8,176.8 98,187 "/>
<path fill="none" stroke="#FFFFFF" stroke-width="1.5" stroke-miterlimit="10" d="M1.6,146.4c22.6-0.2,45.2,6.5,64.1,19
	c4.4,2.9,8.7,6.2,13.6,8.3c8.9,3.8,19,3.5,28.6,3"/>
</svg>
