<?xml version="1.0" encoding="utf-8"?>
<!-- Generator: Adobe Illustrator 18.0.0, SVG Export Plug-In . SVG Version: 6.00 Build 0)  -->
<!DOCTYPE svg PUBLIC "-//W3C//DTD SVG 1.1//EN" "http://www.w3.org/Graphics/SVG/1.1/DTD/svg11.dtd">
<svg version="1.1" id="Layer_1" xmlns="http://www.w3.org/2000/svg"
	 viewBox="0 0 187 164">
<polyline fill="none" stroke="#000000" stroke-width="1" stroke-miterlimit="10" points="133.4,163 122.3,154.4 130.8,143.3 "/>
<path fill="none" stroke="#000000" stroke-width="1" stroke-miterlimit="10" d="M185.9,26.8c1.3,15.2-10.7,29.1-24.8,35
	c-14.1,5.9-30,5.6-45.3,5.2c-18.6-0.5-37.3-0.9-55.9-1.4c-13.6-0.3-27.8-0.8-39.9-7.2S-1.1,37.7,3,24.7C5.4,17.1,11.8,11.3,19,8
	s15.3-4.4,23.2-5.1c27.5-2.3,55.1,0.3,82.5,2.9c15.4,1.5,32.2,3.5,43.2,14.5c13,13.1,13,33.9,12,52.3c-0.9,17.5-2,35.5-9.5,51.3
	c-7.7,16.5-28.8,33-48.1,30.5"/>
<polyline fill="none" stroke="#FFFFFF" stroke-width="1.5" stroke-miterlimit="10" points="132.4,162 121.3,153.4 129.8,142.3 "/>
<path fill="none" stroke="#FFFFFF" stroke-width="1.5" stroke-miterlimit="10" d="M184.9,25.8c1.3,15.2-10.7,29.1-24.8,35
	s-30,5.6-45.3,5.2c-18.6-0.5-37.3-0.9-55.9-1.4c-13.6-0.3-27.8-0.8-39.9-7.2S-2.1,36.7,2,23.7C4.4,16.1,10.8,10.3,18,7
	s15.3-4.4,23.2-5.1c27.5-2.3,55.1,0.3,82.5,2.9c15.4,1.5,32.2,3.5,43.2,14.5c13,13.1,13,33.9,12,52.3c-0.9,17.5-2,35.5-9.5,51.3
	c-7.7,16.5-28.8,33-48.1,30.5"/>
</svg>
